<svg xmlns="http://www.w3.org/2000/svg" width="50" height="50" viewBox="0 0 100 100"><rect width="100" height="100" rx="20" fill="#4242a2"></rect><path d="M24.56 78.97L24.56 78.97Q23.59 76.37 23.68 72.68Q23.77 69.00 24.72 63.80Q25.67 58.60 27.62 52.67L27.62 52.67Q32.12 38.89 39.87 28.31L39.87 28.31Q41.21 26.51 42.67 26.51Q44.14 26.51 45.55 27.15Q46.97 27.80 48.03 28.69L48.03 28.69Q50.72 30.91 49.80 32.30L49.80 32.30Q43.25 42.79 39.08 51.23L39.08 51.23Q49.61 50.49 57.63 44.55L57.63 44.55Q66.40 38.10 66.40 28.87L66.40 28.87Q66.40 22.61 60.19 20.89L60.19 20.89Q58.28 20.38 55.66 20.38Q53.04 20.38 50.24 20.92Q47.43 21.45 44.83 22.38L44.83 22.38Q39.68 24.28 35.42 27.39L35.42 27.39Q34.21 28.27 33.19 28.27Q32.17 28.27 30.96 27.73Q29.76 27.20 28.83 26.41L28.83 26.41Q25.21 23.35 29.85 20.06L29.85 20.06Q36.58 15.33 49.70 13.93L49.70 13.93Q52.16 13.70 56.27 13.70Q60.37 13.70 64.66 15.05Q68.95 16.39 71.55 18.67L71.55 18.67Q76.33 22.93 76.33 30.54L76.33 30.54Q76.33 37.41 70.90 44.09L70.90 44.09Q65.94 50.26 58.10 54.11L58.10 54.11Q61.86 55.78 63.73 58.77Q65.61 61.76 65.52 65.21Q65.43 68.67 64.15 71.57Q62.88 74.47 60.72 76.81Q58.56 79.15 55.71 80.94Q52.86 82.73 49.70 83.89L49.70 83.89Q43.25 86.30 36.62 86.30L36.62 86.30Q27.30 86.30 24.56 78.97ZM35.79 58.74L35.79 58.74Q32.26 67.51 32.08 74.01L32.08 74.01Q31.98 77.16 33.63 78.85Q35.28 80.55 38.15 80.55Q41.03 80.55 44.09 79.29Q47.15 78.04 49.70 75.91L49.70 75.91Q55.55 70.99 55.73 64.77L55.73 64.77Q55.87 59.11 50.63 57.07L50.63 57.07Q49.05 56.47 47.24 56.29L47.24 56.29Q45.06 56.38 41.14 57.40Q37.22 58.42 35.79 58.74Z" fill="#fff"></path></svg>